<svg id="https:_www.flaticon.com_free-icon_muscle_1813361_term_fitness_20gym_page_3_position_28" data-name="https://www.flaticon.com/free-icon/muscle_1813361#term=fitness%20gym&amp;page=3&amp;position=28" xmlns="http://www.w3.org/2000/svg" width="99.898" height="90.16" viewBox="0 0 99.898 90.16">
  <path id="Path_56" data-name="Path 56" d="M336.406,261.642l2.608,2.087a24.215,24.215,0,0,0,5.3-13.445q.072-.988.072-2.027a169.745,169.745,0,0,0-2.974-25.336l-3.287.581a167.082,167.082,0,0,1,2.922,24.754c0,.609-.022,1.2-.064,1.786A20.884,20.884,0,0,1,336.406,261.642Zm0,0" transform="translate(-266.197 -176.465)" fill="#ff1414"/>
  <path id="Path_57" data-name="Path 57" d="M98.228,5.333H89.88V3.663a1.669,1.669,0,0,0-1.67-1.67H78.193a1.669,1.669,0,0,0-1.67,1.67V15.351H69.844a5.009,5.009,0,0,0-5.009-5.009,4.948,4.948,0,0,0-1.67.307v-.307a5.009,5.009,0,0,0-5.009-5.009,4.948,4.948,0,0,0-1.67.307V5.333a5,5,0,0,0-9.824-1.3,4.992,4.992,0,0,0-6.873,4.642v6.679H26.434V3.663a1.669,1.669,0,0,0-1.67-1.67H14.746a1.669,1.669,0,0,0-1.67,1.67v1.67H4.728A1.669,1.669,0,0,0,3.059,7V37.056a1.67,1.67,0,0,0,1.67,1.67h8.348V40.4a1.67,1.67,0,0,0,1.67,1.67H24.764a1.67,1.67,0,0,0,1.67-1.67V28.708h5.549a10.022,10.022,0,0,0,4.508,5.523l6.639,3.793V58.21a46.338,46.338,0,0,0-16.7-2.788C7.4,55.422.292,65.743,0,66.183l2.775,1.86c.257-.379,6.513-9.281,23.659-9.281,17.211,0,23.684,7.651,23.74,7.722L52.782,64.4a20.569,20.569,0,0,0-6.313-4.69V37.056a1.669,1.669,0,0,0-.835-1.45l-7.48-4.276a6.759,6.759,0,0,1-3.373-5.962,6.679,6.679,0,0,1,5.009-6.442V23.7H43.13V8.672a1.67,1.67,0,1,1,3.339,0v5.009h3.339V5.333a1.67,1.67,0,1,1,3.339,0V15.351h3.339V10.342a1.67,1.67,0,1,1,3.339,0v6.679h3.339v-1.67a1.67,1.67,0,1,1,3.339,0V29.983l-3.172,6.326a1.664,1.664,0,0,0-.139,1.1c.058.233,4.98,23.337,4.98,34.714q0,.668-.046,1.305A15.166,15.166,0,0,1,52.789,87.145H1.389v3.339h51.4a18.514,18.514,0,0,0,18.669-16.82q.055-.753.055-1.546c0-10.845-4.137-31.086-4.924-34.837l3.087-6.158a1.677,1.677,0,0,0,.167-.746v-1.67h6.679V40.4a1.67,1.67,0,0,0,1.67,1.67H88.211a1.67,1.67,0,0,0,1.67-1.67v-1.67h8.348a1.67,1.67,0,0,0,1.67-1.67V7A1.669,1.669,0,0,0,98.228,5.333ZM6.4,35.387V30.378H9.737V27.038H6.4V23.7H9.737V20.36H6.4V17.021H9.737V13.681H6.4V8.672h6.679V35.387Zm16.7,3.339H16.416V5.333h6.679ZM26.434,18.69h7.6a10.21,10.21,0,0,0-2.587,6.679H26.434Zm43.411,6.679V18.69h6.679v6.679Zm16.7,13.357H79.862V5.333h6.679Zm3.339-3.339V8.672h6.679v5.009H93.219v3.339h3.339V20.36H93.219V23.7h3.339v3.339H93.219v3.339h3.339v5.009Zm0,0" transform="translate(0 -0.326)" fill="#ff1414"/>
  <path id="Path_58" data-name="Path 58" d="M102.506,303.476l1.717-2.861a34.193,34.193,0,0,0-17.555-4.34A33.224,33.224,0,0,0,76.121,297.9l1.058,3.172a29.891,29.891,0,0,1,9.489-1.455A30.42,30.42,0,0,1,102.506,303.476Zm0,0" transform="translate(-60.234 -234.5)" fill="#ff1414"/>
  <path id="Path_59" data-name="Path 59" d="M45.556,311.1a25.82,25.82,0,0,0-3.572,2.147l1.948,2.711a22.4,22.4,0,0,1,3.109-1.869Zm0,0" transform="translate(-33.222 -246.238)" fill="#ff1414"/>
</svg>
